<?xml version="1.0" encoding="UTF-8"?>
<svg id="Artwork" xmlns="http://www.w3.org/2000/svg" viewBox="0 0 1434.07 334.19">
  <defs>
    <style>
      .cls-1 {
        fill: #fff;
      }
    </style>
  </defs>
  <path class="cls-1" d="m138.92,159.45c11.09-6.9,20.14-15.88,26.98-26.76,8.23-13.11,12.41-28.14,12.41-44.67s-4.14-32.47-12.3-45.85c-8.14-13.32-19.46-23.83-33.65-31.25C118.47,3.68,102.61,0,85.2,0H28.36c-7.8,0-14.74,2.77-20.02,7.94C2.88,13.26,0,20.22,0,28.08v208.6c0,7.86,2.88,14.82,8.29,20.08,5.32,5.22,12.26,7.99,20.07,7.99s14.72-2.75,20.05-7.96c5.43-5.31,8.3-12.27,8.3-20.11v-62.73h24.82l49.61,77.18c2.48,3.99,5.53,7.18,9.05,9.47,4.23,2.76,9.36,4.16,15.24,4.16,15.69,0,22.78-8.76,25.62-14.01,2.8-5.19,6.22-15.88-2.3-29.19l-39.82-62.1Zm27.6,83.46c-1.93,3.56-5.62,5.34-11.1,5.34-2.63,0-4.71-.49-6.23-1.48-1.52-.99-2.88-2.47-4.1-4.45l-54.64-85c-1.72.09-3.48.13-5.25.13h-44.99v79.23c0,3.37-1.11,6.13-3.34,8.31s-5.07,3.26-8.51,3.26-6.29-1.08-8.51-3.26c-2.24-2.18-3.35-4.94-3.35-8.31V28.08c0-3.37,1.11-6.13,3.35-8.31,2.22-2.18,5.06-3.27,8.51-3.27h56.84c14.79,0,27.97,3.02,39.52,9.05,11.55,6.04,20.62,14.45,27.21,25.23,6.58,10.78,9.88,23.19,9.88,37.24s-3.3,25.42-9.88,35.9c-6.59,10.49-15.66,18.7-27.21,24.63-3.12,1.6-6.36,2.99-9.72,4.16l49.85,77.74c3.04,4.75,3.59,8.9,1.67,12.46Z"/>
  <path class="cls-1" d="m131.71,112.35c4.66-7.12,7-15.23,7-24.33,0-9.69-2.34-18.25-7-25.67-4.66-7.42-10.99-13.21-19-17.36-8-4.15-17.17-6.23-27.51-6.23h-44.99v96.44h44.99c10.34,0,19.51-2.03,27.51-6.09,8.01-4.05,14.34-9.64,19-16.76Zm-13.81-9.04c-3.08,4.71-7.21,8.33-12.66,11.08-5.71,2.9-12.26,4.3-20.04,4.3h-28.49v-63.44h28.49c7.72,0,14.23,1.43,19.92,4.38,5.39,2.79,9.52,6.55,12.62,11.49,3.01,4.79,4.47,10.32,4.47,16.89,0,5.86-1.41,10.87-4.31,15.29Z"/>
  <path class="cls-1" d="m308.48,113.39c-9.22-5.44-19.71-8.16-31.46-8.16s-21.99,2.72-31.31,8.16c-9.32,5.44-16.72,12.81-22.19,22.1-5.47,9.3-8.21,19.89-8.21,31.75s2.74,22.21,8.21,31.61c5.47,9.4,12.87,16.76,22.19,22.1,9.32,5.35,19.76,8.02,31.31,8.02s22.24-2.67,31.46-8.02c9.22-5.34,16.52-12.7,21.89-22.1,5.37-9.4,8.06-19.93,8.06-31.61s-2.69-22.45-8.06-31.75c-5.37-9.29-12.67-16.66-21.89-22.1Zm7.56,77.27h0c-3.93,6.88-9.11,12.11-15.84,16.01-6.72,3.9-14.3,5.79-23.18,5.79s-16.26-1.91-23.11-5.84c-6.84-3.92-12.12-9.18-16.13-16.08-4.02-6.9-5.97-14.53-5.97-23.31s1.94-16.6,5.93-23.38c4.05-6.88,9.38-12.19,16.29-16.22,6.81-3.98,14.33-5.91,22.99-5.91s16.38,1.92,23.08,5.87c6.8,4.01,12.03,9.29,15.99,16.14,3.94,6.82,5.85,14.5,5.85,23.5s-1.93,16.49-5.89,23.42Z"/>
  <path class="cls-1" d="m364.32,116.39h0c-8.84-14.9-21-26.82-36.11-35.44-15.12-8.62-32.34-13-51.18-13s-36.07,4.36-51.3,12.97c-15.25,8.63-27.47,20.56-36.3,35.46-8.9,14.99-13.41,32.1-13.41,50.86s4.37,35.44,13,50.39c8.61,14.93,20.5,26.88,35.31,35.53,14.86,8.68,31.78,13.08,50.27,13.08s33.71-4.07,47.83-12.1c1.1-.63,2.19-1.27,3.26-1.94,1.18,1.8,2.59,3.48,4.23,5,5.29,4.94,12.13,7.54,19.76,7.54s14.45-2.6,19.8-7.57c5.6-5.25,8.56-12.23,8.56-20.2v-69.95c-.24-18.66-4.85-35.7-13.71-50.64Zm-2.79,120.59c0,3.36-1.12,6.08-3.34,8.16-2.24,2.08-5.07,3.11-8.52,3.11s-6.28-1.03-8.51-3.11c-2.23-2.08-3.34-4.8-3.34-8.16v-18.01c-6.25,8.51-14.11,15.45-23.56,20.83-11.66,6.63-24.88,9.94-39.67,9.94-15.61,0-29.59-3.61-41.95-10.83-12.37-7.22-22.15-17.07-29.34-29.53-7.19-12.46-10.79-26.51-10.79-42.14s3.7-29.97,11.1-42.43c7.39-12.46,17.48-22.3,30.24-29.52,12.77-7.22,27.16-10.83,43.17-10.83s30.35,3.61,43.01,10.83c12.67,7.22,22.7,17.06,30.1,29.52,7.39,12.46,11.2,26.61,11.4,42.43v69.74Z"/>
  <path class="cls-1" d="m456.76,38.76c0-9.81-3.72-18.19-10.78-24.25-6.32-5.41-13.97-8.27-22.14-8.27s-16.12,2.86-22.45,8.28c-7.05,6.05-10.77,14.43-10.77,24.24,0,9.02,3.41,17.11,9.83,23.37,4.28,4.18,9.32,7.03,14.85,8.44-5.36,1.5-9.16,4.25-11.65,6.68-3.73,3.64-8.17,10.1-8.17,20.26v139.17c0,10.16,4.44,16.63,8.17,20.26,3.65,3.56,10.11,7.81,20.19,7.81,7.78,0,14.65-2.7,19.89-7.81,3.73-3.64,8.17-10.1,8.17-20.26V97.51c0-10.16-4.44-16.63-8.17-20.26-3.3-3.22-7.25-5.48-11.66-6.71,5.57-1.42,10.61-4.25,14.85-8.4,6.44-6.28,9.84-14.37,9.84-23.38Zm-24.56,50.3c2.13,2.08,3.19,4.9,3.19,8.46v139.17c0,3.56-1.06,6.38-3.19,8.46s-4.92,3.12-8.36,3.12c-3.65,0-6.54-1.04-8.66-3.12s-3.19-4.9-3.19-8.46V97.51c0-3.56,1.06-6.38,3.19-8.46s5.02-3.12,8.66-3.12c3.44,0,6.23,1.04,8.36,3.12Zm3.19-38.72c-3.24,3.17-7.2,4.75-11.86,4.75s-8.31-1.58-11.55-4.75c-3.24-3.16-4.86-7.02-4.86-11.57,0-4.94,1.67-8.85,5.02-11.72,3.34-2.87,7.24-4.3,11.7-4.3s8.06,1.44,11.4,4.3c3.34,2.87,5.02,6.78,5.02,11.72,0,4.55-1.62,8.41-4.86,11.57Z"/>
  <path class="cls-1" d="m619.85,78.23c-13.66-7.02-29.18-10.57-46.14-10.57-15.82,0-30.48,3.48-43.53,10.34-.62.32-1.23.65-1.83.99-.56-.65-1.12-1.24-1.66-1.77-5.23-5.09-12.1-7.78-19.86-7.78-10.06,0-16.52,4.23-20.23,7.83-3.71,3.64-8.13,10.11-8.13,20.24v139.47c0,7.82,2.81,14.72,8.16,19.96,3.65,3.56,10.11,7.81,20.2,7.81,7.78,0,14.66-2.7,19.89-7.81,5.34-5.21,8.16-12.12,8.16-19.96v-87.84c0-4.89,1.25-8.92,3.92-12.67,3.01-4.22,7.13-7.52,12.59-10.08,5.83-2.74,12.33-4.07,19.88-4.07s14.65,1.41,20.67,4.31c5.29,2.54,9.36,6.29,12.47,11.44,3.18,5.28,4.79,12.6,4.79,21.76v77.15c0,7.64,2.87,14.49,8.31,19.81,5.33,5.21,12.26,7.96,20.04,7.96s14.42-2.75,19.75-7.96c5.44-5.32,8.31-12.17,8.31-19.81v-77.15c0-19.09-4.08-35.77-12.13-49.57-8.16-13.97-19.47-24.74-33.62-32.02Zm29.25,158.75c0,3.16-1.12,5.83-3.35,8.01s-4.97,3.26-8.21,3.26c-3.44,0-6.28-1.08-8.51-3.26-2.23-2.18-3.34-4.85-3.34-8.01v-77.15c0-12.27-2.39-22.36-7.15-30.27s-11.24-13.85-19.45-17.8c-8.21-3.96-17.48-5.94-27.82-5.94s-18.9,1.88-26.9,5.64c-8.01,3.76-14.34,8.9-19,15.43-4.66,6.53-6.99,13.95-6.99,22.25v87.84c0,3.36-1.06,6.08-3.19,8.16-2.13,2.08-4.92,3.11-8.36,3.11-3.65,0-6.54-1.03-8.67-3.11-2.12-2.08-3.19-4.8-3.19-8.16V97.51c0-3.56,1.07-6.38,3.19-8.46,2.13-2.07,5.02-3.11,8.67-3.11,3.44,0,6.23,1.04,8.36,3.11,2.13,2.08,3.19,4.9,3.19,8.46v10.04c5.43-6,11.92-10.98,19.46-14.93,10.73-5.64,22.69-8.46,35.87-8.46,14.38,0,27.25,2.92,38.6,8.75,11.35,5.84,20.32,14.39,26.91,25.67,6.58,11.28,9.88,25.03,9.88,41.25v77.15Z"/>
  <path class="cls-1" d="m807.93,113.24c-9.22-5.34-19.71-8.01-31.46-8.01s-21.99,2.67-31.31,8.01c-9.32,5.34-16.72,12.71-22.19,22.11-5.47,9.4-8.21,19.93-8.21,31.6s2.74,22.46,8.21,31.75c5.47,9.3,12.87,16.67,22.19,22.11,9.32,5.44,19.76,8.16,31.31,8.16s22.24-2.72,31.46-8.16c9.22-5.44,16.52-12.81,21.89-22.11,5.37-9.3,8.06-19.88,8.06-31.75s-2.69-22.2-8.06-31.6c-5.37-9.39-12.67-16.77-21.89-22.11Zm7.6,77.21c-3.96,6.86-9.19,12.14-15.99,16.15-6.69,3.95-14.24,5.87-23.08,5.87s-16.18-1.93-23-5.91c-6.9-4.03-12.23-9.33-16.29-16.23-3.99-6.77-5.93-14.42-5.93-23.38s1.95-16.4,5.97-23.3c4.03-6.92,9.31-12.18,16.14-16.1,6.84-3.92,14.4-5.83,23.11-5.83s16.46,1.89,23.19,5.79c6.72,3.89,11.9,9.13,15.83,16.01,3.96,6.93,5.88,14.59,5.88,23.42s-1.91,16.69-5.84,23.5Z"/>
  <path class="cls-1" d="m868.87,7.54C863.57,2.61,856.74,0,849.12,0s-14.47,2.61-19.75,7.54c-3.93,3.65-8.6,10.18-8.6,20.54v51.44c-.79-.43-1.58-.86-2.39-1.27-13.25-6.83-28.17-10.29-44.34-10.29-18.5,0-35.41,4.4-50.28,13.08-14.82,8.66-26.7,20.61-35.3,35.52-8.63,14.94-13,31.9-13,50.39s4.51,35.87,13.41,50.85c8.85,14.91,21.07,26.85,36.31,35.47,15.21,8.61,32.47,12.97,51.29,12.97s35.69-4.31,50.8-12.8c15.14-8.51,27.31-20.33,36.17-35.14,8.83-14.76,13.56-31.49,14.04-49.73V28.08c0-8.19-2.96-15.28-8.6-20.54Zm-7.9,160.6c-.41,15.43-4.31,29.33-11.7,41.69-7.4,12.37-17.43,22.11-30.09,29.23-12.67,7.12-26.9,10.68-42.71,10.68s-30.4-3.61-43.17-10.83c-12.77-7.22-22.85-17.06-30.25-29.53-7.4-12.46-11.1-26.6-11.1-42.43s3.6-29.67,10.79-42.14c7.19-12.46,16.97-22.3,29.33-29.52,12.36-7.22,26.34-10.83,41.95-10.83,13.57,0,25.84,2.82,36.78,8.46,10.94,5.64,19.76,13.11,26.45,22.4V28.08c0-3.56,1.11-6.38,3.34-8.46,2.23-2.08,5.06-3.12,8.51-3.12s6.28,1.04,8.51,3.12c2.23,2.08,3.34,4.9,3.34,8.46v140.06Z"/>
  <path class="cls-1" d="m1034.05,103.63l.1-.39c3.07-12.42-2.42-23.89-14.33-29.94-7.49-3.8-16.99-5.64-29.05-5.64-14.63,0-28.19,3.54-40.3,10.51-.48.28-.96.56-1.43.84-.59-.71-1.19-1.35-1.77-1.91-3.58-3.49-9.96-7.66-20.03-7.66s-16.48,4.18-20.03,7.66c-3.66,3.57-8.02,9.96-8.02,20.12v139.76c0,10.17,4.36,16.55,7.99,20.09,3.57,3.5,9.95,7.68,20.06,7.68s16.45-4.16,20.06-7.68c3.65-3.57,7.99-9.96,7.99-20.09v-88.73c0-5.69,1.38-10.13,4.33-13.98,3.26-4.25,7.72-7.38,13.62-9.57,6.47-2.4,14.24-3.22,23.08-2.45l.48.04c3.38.2,6.41.39,9.03.57,5.79.43,11.08-.57,15.76-2.97,4.26-2.19,9.88-6.8,12.46-16.26Zm-15.92-4.34c-.81,2.97-2.18,4.95-4.1,5.94-1.93.99-4.26,1.38-6.99,1.18-2.74-.19-5.83-.39-9.28-.59-11.35-.99-21.43.15-30.24,3.41-8.82,3.27-15.81,8.26-20.98,14.99-5.17,6.73-7.75,14.74-7.75,24.03v88.73c0,3.56-1.02,6.33-3.04,8.31-2.03,1.98-4.86,2.96-8.51,2.96s-6.49-.98-8.51-2.96c-2.03-1.98-3.04-4.75-3.04-8.31V97.22c0-3.57,1.01-6.33,3.04-8.31,2.02-1.98,4.86-2.97,8.51-2.97s6.48.99,8.51,2.97c2.02,1.98,3.04,4.74,3.04,8.31v12.94c5.43-7.28,12.06-13.17,19.91-17.69,9.62-5.54,20.32-8.31,32.07-8.31,9.32,0,16.52,1.29,21.59,3.86,5.06,2.57,6.99,6.33,5.77,11.27Z"/>
  <path class="cls-1" d="m1205.95,116.18c-8.76-14.96-20.9-26.88-36.1-35.42-15.11-8.49-32.4-12.8-51.4-12.8s-36.31,4.3-51.51,12.77c-15.31,8.54-27.53,20.47-36.3,35.45-8.76,14.97-13.21,32.15-13.21,51.07s4.44,35.8,13.21,50.77c8.77,14.98,20.98,26.91,36.3,35.45,15.19,8.47,32.52,12.77,51.51,12.77s36.3-4.31,51.41-12.8c15.16-8.52,27.33-20.41,36.2-35.34,8.9-14.99,13.41-32.1,13.41-50.85v-.21c-.24-18.85-4.79-35.96-13.51-50.86Zm-14.09,93.5c-7.4,12.46-17.43,22.25-30.09,29.38-12.67,7.12-27.11,10.68-43.32,10.68s-30.7-3.56-43.47-10.68c-12.77-7.12-22.8-16.91-30.09-29.38s-10.94-26.6-10.94-42.43,3.65-30.27,10.94-42.73,17.33-22.26,30.09-29.38,27.25-10.68,43.47-10.68,30.65,3.56,43.32,10.68c12.66,7.12,22.65,16.91,29.94,29.38s11.04,26.71,11.25,42.73c0,15.83-3.7,29.97-11.1,42.43Z"/>
  <path class="cls-1" d="m1150.06,113.24c-9.32-5.34-19.86-8.01-31.62-8.01s-22.3,2.67-31.62,8.01c-9.32,5.34-16.67,12.71-22.04,22.11-5.37,9.4-8.06,20.03-8.06,31.9s2.68,22.46,8.06,31.75c5.37,9.3,12.71,16.62,22.04,21.96,9.32,5.34,19.86,8.01,31.62,8.01s22.29-2.67,31.62-8.01c9.32-5.34,16.61-12.66,21.89-21.96,5.27-9.3,7.9-19.88,7.9-31.75s-2.64-22.5-7.9-31.9c-5.27-9.39-12.57-16.77-21.89-22.11Zm7.53,77.62c-3.82,6.74-8.97,11.9-15.73,15.78-6.85,3.92-14.5,5.83-23.41,5.83s-16.57-1.91-23.41-5.83c-6.82-3.9-12.03-9.1-15.95-15.9-3.93-6.8-5.84-14.49-5.84-23.5s1.92-16.79,5.88-23.71c3.92-6.86,9.13-12.09,15.92-15.98,6.84-3.92,14.5-5.83,23.41-5.83s16.57,1.91,23.41,5.83c6.74,3.86,11.88,9.05,15.7,15.86,3.9,6.96,5.8,14.76,5.8,23.83s-1.88,16.78-5.76,23.61Z"/>
  <path class="cls-1" d="m1364.37,113.39c-9.32-5.44-19.86-8.16-31.62-8.16s-21.99,2.72-31.31,8.16c-9.32,5.44-16.62,12.81-21.89,22.11-5.27,9.3-7.9,19.88-7.9,31.75s2.63,22.21,7.9,31.6c5.27,9.4,12.56,16.77,21.89,22.11,9.32,5.34,19.76,8.01,31.31,8.01s22.29-2.67,31.62-8.01c9.32-5.34,16.67-12.71,22.04-22.11,5.37-9.39,8.06-19.93,8.06-31.6s-2.69-22.45-8.06-31.75c-5.37-9.3-12.72-16.66-22.04-22.11Zm7.71,77.27c-3.92,6.86-9.13,12.09-15.92,15.98-6.85,3.92-14.5,5.83-23.41,5.83s-16.27-1.91-23.11-5.83c-6.75-3.87-11.88-9.05-15.7-15.87-3.9-6.94-5.79-14.64-5.79-23.53s1.88-16.78,5.76-23.62c3.84-6.78,9.02-12.01,15.85-15.99,6.82-3.98,14.34-5.91,23-5.91s16.48,1.93,23.29,5.91c6.87,4.01,12.13,9.28,16.07,16.11,3.93,6.82,5.85,14.51,5.85,23.5s-1.92,16.49-5.88,23.41Z"/>
  <path class="cls-1" d="m1420.66,116.39c-8.85-14.91-21.07-26.84-36.31-35.46-15.22-8.6-32.58-12.97-51.59-12.97s-35.7,4.31-50.8,12.8c-15.14,8.51-27.31,20.33-36.17,35.14-8.88,14.84-13.5,31.65-13.74,49.95v140.27c0,10.16,4.44,16.63,8.17,20.26,3.65,3.56,10.11,7.81,20.19,7.81,7.78,0,14.65-2.7,19.88-7.81,3.73-3.64,8.17-10.1,8.17-20.26v-51.51c.85.47,1.72.93,2.6,1.37,13.34,6.81,28.29,10.26,44.44,10.26,18.5,0,35.41-4.4,50.27-13.08,14.81-8.65,26.69-20.6,35.3-35.53,8.63-14.95,13-31.9,13-50.38s-4.51-35.86-13.41-50.86Zm-13.88,92.99c-7.2,12.46-16.98,22.31-29.33,29.53-12.36,7.22-26.35,10.83-41.95,10.83-13.58,0-25.89-2.82-36.94-8.46-11.05-5.64-19.91-13.1-26.6-22.4v87.24c0,3.56-1.06,6.38-3.19,8.46s-4.92,3.12-8.36,3.12c-3.65,0-6.54-1.04-8.66-3.12s-3.19-4.9-3.19-8.46v-140.06c.2-15.43,4-29.33,11.4-41.69,7.4-12.36,17.43-22.11,30.09-29.23,12.66-7.12,26.9-10.68,42.71-10.68s30.7,3.61,43.47,10.83c12.77,7.22,22.85,17.06,30.25,29.52,7.4,12.46,11.1,26.61,11.1,42.43s-3.6,29.67-10.79,42.14Z"/>
</svg>